<?xml version="1.0" encoding="UTF-8"?>
<svg id="Calque_1" data-name="Calque 1" xmlns="http://www.w3.org/2000/svg" viewBox="0 0 1662.77 373.16">
  <defs>
    <style>
      .cls-1 {
        fill: #1d1d1d;
      }

      .cls-2 {
        fill: #fff;
      }

      .cls-3 {
        fill: #fd0;
      }
    </style>
  </defs>
  <rect class="cls-3" x="717.8" width="944.97" height="373.16"/>
  <g>
    <path d="M954.55,282.31s-17.13,4.89-39.63,4.89c-65.57,0-95.41-40.61-95.41-93.45s29.85-94.43,95.41-94.43c22.51,0,39.63,4.89,39.63,4.89v37.68h-1.96s-14.68-5.38-30.83-5.38c-34.74,0-48.44,25.44-48.44,56.27s13.7,57.25,48.44,57.25c15.9,0,30.83-5.38,30.83-5.38h1.96v37.67Z"/>
    <path d="M988.29,151.67s20.06-6.36,52.6-6.36c27.16,0,46.24,4.4,56.03,17.62,7.83,10.76,7.83,23.49,7.83,38.65v33.76c0,6.36,0,16.64,12.23,16.64,2.45,0,4.89-.49,4.89-.49v33.27s-12.72,2.45-24.95,2.45c-20.55,0-31.8-6.85-34.74-24.46-4.89,17.12-22.02,24.46-41.59,24.46-28.38,0-47.46-15.66-47.46-42.08,0-33.76,30.83-47.46,70.7-47.46,7.58,0,12.48.49,12.48.49,0-5.87,0-9.3-2.94-13.21-2.94-3.91-8.32-5.87-19.33-5.87-22.26,0-43.79,7.83-43.79,7.83h-1.96v-35.23ZM1037.22,252.46c8.32,0,14.19-3.92,16.63-8.81,2.45-4.89,2.45-11.25,2.45-14.68v-4.41h-6.36c-7.83,0-27.4,0-27.4,15.17,0,7.34,4.9,12.72,14.68,12.72Z"/>
    <path d="M1243.19,184.94h-1.96s-21.53-6.85-35.72-6.85c-10.28,0-14.19,3.43-14.19,7.34,0,15.17,58.72,9.3,58.72,56.27,0,27.89-20.55,45.5-64.1,45.5-26.42,0-44.04-6.36-44.04-6.36v-34.25h1.96s25.44,7.83,42.08,7.83c10.28,0,14.68-2.94,14.68-7.83,0-18.1-58.72-11.74-58.72-56.76,0-27.89,22.51-44.53,62.14-44.53,22.51,0,39.14,5.38,39.14,5.38v34.25Z"/>
    <path d="M1325.87,94.42v73.39c5.38-14.68,17.12-23.49,40.61-23.49,17.62,0,30.83,4.89,39.14,17.13,7.83,11.25,7.83,23.97,7.83,43.06v80.73h-49.91v-80.73c0-4.89,0-10.52-2.93-14.68-2.94-3.91-8.81-5.87-16.15-5.87-17.62,0-18.59,11.74-18.59,20.06v81.22h-48.93V94.42h48.93Z"/>
    <path d="M1568.53,261.27c0,15.66-10.28,25.93-27.4,25.93s-27.4-10.28-27.4-25.93,10.28-25.93,27.4-25.93,27.4,10.28,27.4,25.93ZM1568.04,101.27l-5.38,126.24h-43.06l-5.38-126.24h53.82Z"/>
  </g>
  <rect class="cls-1" width="717.8" height="373.16"/>
  <g>
    <path class="cls-2" d="M150.41,101.27v183.98h-50.89V101.27h50.89Z"/>
    <path class="cls-2" d="M225.27,147.26l8.81,23.97c5.14-17.37,18.84-26.91,43.3-26.91,17.37,0,30.58,4.89,38.9,17.13,7.83,11.25,7.83,23.97,7.83,43.06v80.73h-49.91v-80.73c0-4.89,0-10.03-2.94-14.19-2.93-3.91-7.83-6.36-16.15-6.36-17.62,0-18.59,11.74-18.59,20.06v81.22h-49.91v-137.98h38.66Z"/>
    <path class="cls-2" d="M418.03,185.43v99.82h-48.93v-99.82h-25.44v-36.21h25.44v-4.4c0-7.34,0-18.84,6.85-30.34,7.83-12.97,22.02-21.04,53.09-21.04,15.17,0,25.2,1.96,25.2,1.96v36.21h-1.96s-10.28-1.96-18.1-1.96c-8.81,0-12.23,2.45-14.19,6.36-1.96,3.91-1.96,7.83-1.96,10.76v2.45h36.21v36.21h-36.21Z"/>
    <path class="cls-2" d="M539.11,289.16c-45.99,0-73.39-23.48-73.39-72.41s27.4-73.39,74.37-73.39,73.39,23.49,73.39,72.42-27.4,73.39-74.37,73.39ZM561.62,216.5c0-23-4.4-39.88-22.26-39.88s-21.77,16.39-21.77,39.39,4.4,39.88,22.26,39.88,21.77-16.39,21.77-39.39Z"/>
  </g>
</svg>